<?xml version="1.0" encoding="UTF-8"?>
<svg id="Layer_2" data-name="Layer 2" xmlns="http://www.w3.org/2000/svg" viewBox="0 0 527.45 184.06">
  <defs>
    <style>
      .cls-1 {
        fill: #fff;
      }
    </style>
  </defs>
  <g id="Layer_1-2" data-name="Layer 1">
    <g>
      <path class="cls-1" d="M198.88,184.06L246.03,0h36.5l-47.79,184.06h-35.85Z"/>
      <path class="cls-1" d="M405.38,184.06h-51.67l-3.55-17.76h-38.76l-3.23,17.76h-48.45L308.17,0h48.44l48.77,184.06ZM318.18,132.06h24.87l-11.63-63.58h-1.61l-11.63,63.58Z"/>
      <path class="cls-1" d="M381.79,0h51.67l15.83,64.61,6.46,35.52h1.61l6.46-35.52L479.01,0h48.44l-48.44,184.06h-48.45L381.79,0Z"/>
      <polygon class="cls-1" points="173.25 0 158.07 64.61 151.61 100.14 149.99 100.14 143.53 64.61 136.36 35.33 127.71 0 97.21 0 87.26 42.37 82.03 64.61 75.57 100.14 73.96 100.14 67.5 64.61 51.67 0 0 0 48.77 184.06 93.21 184.06 109.95 125.45 112.09 125.45 128.8 184.06 173.25 184.06 221.69 0 173.25 0"/>
    </g>
  </g>
</svg>